<svg xmlns="http://www.w3.org/2000/svg" width="20" height="20" fill="none" viewBox="0 0 20 20"><path fill="#1967D2" d="M18.492 0h-3.25v4.711h4.757V1.328c.001 0-.235-1.2-1.506-1.328zM15.243 19.979V20L20 15.29h-.043l-4.714 4.689z"></path><path fill="#FBBC05" d="M20 15.292v-.042l-.043.042H20zM20 4.71h-4.757v10.536H20V4.711z"></path><path fill="#EA4335" d="M19.957 15.29h-4.714v4.689l4.714-4.69z"></path><path fill="#EA4335" d="M15.243 15.292h4.714L20 15.25h-4.757v.042z"></path><path fill="#34A853" d="M15.231 19.988h.011v-.011l-.011.011z"></path><path fill="#34A853" d="M4.65 15.25v4.743h10.581l.012-4.743H4.65z"></path><path fill="#34A853" d="M15.242 15.292v-.042l-.011 4.743.011-.011v-4.69z"></path><path fill="#188038" d="M0 15.25v3.298c.043 1.07 1.2 1.445 1.2 1.445h3.45V15.25H0z"></path><path fill="#4285F4" d="M4.65 4.711h10.593V0H1.333S.085.128 0 1.456v13.79h4.65V4.711z"></path><path fill="#4285F4" d="M8.116 13.116a2.58 2.58 0 01-.702-.094 2.091 2.091 0 01-.605-.284 2.217 2.217 0 01-.494-.491 2.247 2.247 0 01-.32-.68l1.065-.422c.075.287.202.505.38.654.18.144.404.216.676.216.12 0 .236-.018.346-.052a.927.927 0 00.285-.164.768.768 0 00.19-.24.685.685 0 00.079-.328.703.703 0 00-.286-.594c-.185-.143-.441-.215-.77-.215h-.51V9.398h.466c.116 0 .228-.015.338-.043a.867.867 0 00.286-.13.642.642 0 00.199-.232.704.704 0 00.078-.335.597.597 0 00-.208-.474c-.139-.126-.326-.19-.563-.19-.254 0-.45.07-.588.207a1.08 1.08 0 00-.277.448l-1.039-.422c.052-.143.13-.29.234-.439.104-.155.234-.293.39-.413a1.95 1.95 0 01.562-.301c.213-.08.459-.12.736-.12.282 0 .539.04.77.12.236.08.438.192.606.335a1.433 1.433 0 01.528 1.12c0 .172-.023.326-.07.464-.04.138-.095.261-.164.37a1.291 1.291 0 01-.51.465v.07c.276.108.504.283.683.524.185.241.277.545.277.913 0 .258-.05.496-.147.714-.098.212-.24.399-.424.56-.18.16-.395.284-.65.37a2.48 2.48 0 01-.847.137zM12.25 12.979V8.416l-1.046.44-.416-.956 1.74-.81h.856v5.889h-1.133z"></path></svg>