<svg width="32" height="32" viewBox="0 0 32 32" fill="none" xmlns="http://www.w3.org/2000/svg">
<path d="M31.625 16C31.625 24.6294 24.6294 31.625 16 31.625C7.37055 31.625 0.375 24.6294 0.375 16C0.375 7.37055 7.37055 0.375 16 0.375C24.6294 0.375 31.625 7.37055 31.625 16Z" stroke="white" stroke-width="0.75"/>
<path d="M17.1435 21.3959C16.8659 21.1543 16.3684 21.1039 15.8276 21.1724C15.2868 21.0967 14.7749 21.1507 14.5117 21.3959C14.6451 21.4392 15.3301 21.6591 15.8565 21.6591C16.3864 21.6591 17.039 21.4319 17.1435 21.3959Z" fill="white"/>
<path d="M18.2615 24.1348C18.4382 23.8572 18.604 23.5977 18.6509 23.2876C18.7158 22.8478 18.5427 22.4548 18.3733 22.1844C18.2363 21.9717 18.0272 21.8203 17.7893 21.7374H17.7856C17.6523 21.6905 17.5189 21.64 17.4107 21.5859C17.2304 21.7662 16.7113 22.2024 15.8244 22.2024C14.9988 22.2024 14.4003 21.8203 14.1516 21.6256C14.0651 21.6616 13.9749 21.6941 13.8812 21.7265C13.737 21.7806 13.6036 21.8599 13.4954 21.9717C13.308 22.1988 12.9582 22.7144 13.0448 23.3128C13.0916 23.6229 13.2575 23.8825 13.4341 24.1601C13.6973 24.5675 13.9821 25.1767 13.7478 25.8329C13.7117 25.9374 13.6613 26.042 13.5964 26.1466C13.6468 26.2295 13.874 26.5143 14.1984 26.7991C14.5806 27.138 15.1142 27.4769 15.6982 27.5201C15.6297 27.4228 15.5468 27.2497 15.6441 27.1055C15.6694 27.0551 15.7199 27.001 15.7811 26.9325C15.983 26.6873 16.3219 26.2944 16.203 25.9266L16.1633 25.7932L16.2823 25.8689C16.2931 25.8834 16.6139 26.1141 16.2174 26.9794C16.1056 27.2137 16.0948 27.43 16.1705 27.6103C16.2678 27.8446 16.4878 27.9708 16.5995 28.0213C16.6284 27.7761 16.7942 26.9577 17.454 26.9505C17.6847 26.9505 18.0921 26.7775 18.3372 26.5071C17.6414 25.6635 17.9551 24.6071 18.2615 24.1348Z" fill="white"/>
<path d="M18.1042 19.2127C17.9023 19.0324 17.7148 18.8593 17.567 18.7296C17.549 18.8341 17.4661 18.9639 17.2353 19.1045C17.2137 19.1153 17.1885 19.1297 17.1668 19.1442C16.9289 19.2848 16.5611 19.4218 15.9879 19.566C15.9374 19.5804 15.7175 19.5876 15.6743 19.5732C15.649 19.566 15.6202 19.5624 15.5986 19.5552C15.0578 19.4146 14.7045 19.2776 14.4809 19.1442C14.142 18.9639 14.0663 18.7981 14.0663 18.6719C13.9618 18.7692 13.8392 18.8954 13.6914 19.0324C13.3237 19.3857 12.873 19.8364 12.4512 20.1969C11.6256 20.9215 11.1677 23.3046 11.467 24.4438C11.5787 24.8873 11.8419 25.2262 12.069 25.5182C12.3466 25.8859 12.5882 26.2032 12.4656 26.5926C12.4223 26.7223 12.4296 26.8341 12.4908 26.9387C12.5954 27.1261 12.873 27.2775 13.2768 27.3821C13.0713 27.2199 12.6747 26.7079 13.1182 25.7165C13.266 25.2767 13.1254 25.0207 12.8261 24.5592C12.6242 24.2456 12.3971 23.8922 12.3286 23.4272C12.1556 22.2374 13.2371 21.3253 13.2768 21.2857C13.2768 21.2857 13.4066 21.1198 13.5111 21.1054C13.8861 21.0585 14.4809 20.4673 15.0109 20.662C15.3354 20.7881 15.6274 20.817 15.8004 20.8242V20.817C15.8004 20.817 15.8221 20.8242 15.8545 20.8242C15.8834 20.8242 15.9194 20.8242 15.9591 20.817C16.0997 20.8098 16.334 20.7809 16.6405 20.662C17.1596 20.4673 17.8518 21.0802 18.2268 21.127C18.3133 21.1379 18.3746 21.1883 18.4178 21.2604C18.425 21.2676 18.4359 21.2785 18.4539 21.3001C18.6522 21.4767 19.5174 22.3276 19.3624 23.4019C19.2939 23.867 19.0668 24.2203 18.8649 24.534C18.6053 24.9342 18.5909 25.2983 18.6918 25.7345C18.7171 25.8138 18.7387 25.8967 18.7567 25.9833C18.7603 25.9905 18.7603 25.9977 18.7639 26.0049C18.8613 26.4303 18.8613 26.917 18.4503 27.31C18.4287 27.3352 18.407 27.3569 18.3854 27.3749C18.6305 27.3208 19.0091 27.1766 19.1425 26.9387C19.2038 26.8341 19.2182 26.7223 19.1713 26.5926C19.0451 26.2032 19.2867 25.8859 19.5643 25.5182C19.795 25.2262 20.0582 24.8873 20.17 24.4438C20.4656 23.3046 20.0077 20.9215 19.1858 20.1969C18.836 19.9013 18.4503 19.5335 18.1042 19.2127Z" fill="white"/>
<path d="M22.0319 19.7297C22.0319 19.672 22.0427 19.6108 22.0571 19.5495C22.0607 19.5423 22.0607 19.5314 22.0643 19.5242C22.1148 19.3007 22.1401 19.0808 22.1473 18.8681C22.1581 18.4354 22.086 18.0389 21.9995 17.7072C21.8552 17.1989 21.6642 16.8455 21.6317 16.7843C21.6281 16.777 21.6245 16.7734 21.6245 16.7734C21.5091 16.9573 21.1666 17.5305 20.8638 18.2299C20.6835 18.6409 20.5213 19.0952 20.4312 19.535C20.3843 19.7622 20.3555 19.9857 20.3555 20.1984C20.3555 20.7969 20.5574 21.2475 20.7556 21.691C21.026 22.3003 21.3036 22.9312 21.0693 23.9298C21.5812 23.335 21.8985 22.5418 21.4947 21.5792C21.4947 21.5792 21.9057 21.6477 21.985 22.1705C22.1365 22.0371 22.5114 21.6549 22.5114 21.0925C22.5114 20.6995 22.378 20.5048 22.2482 20.3102C22.1365 20.1443 22.0319 19.9929 22.0319 19.7297Z" fill="white"/>
<path d="M9.89976 15.6128C9.96826 15.5948 10.0296 15.5587 10.0944 15.5299C10.1089 15.5154 10.1269 15.5118 10.1413 15.5046V15.4974C10.1629 15.4902 10.1774 15.4758 10.199 15.4614C11.1327 14.7872 11.277 12.3609 12.2432 11.7444C12.4523 11.5605 12.8488 11.3586 13.505 11.1567C13.9701 11.0161 14.363 10.6989 14.583 10.2734C12.9822 10.4104 11.5113 10.7926 10.3252 11.3406C10.2134 11.51 9.95745 11.8778 9.82405 12.0508C9.3734 12.6601 8.85785 13.3451 8.72806 14.1455C8.81098 14.131 8.98403 14.0806 9.26885 13.8751L9.38061 13.7957L9.34456 13.9291C9.24001 14.2752 9.14987 14.6069 9.02009 14.8377C8.67398 15.4686 8.68119 16.3374 8.77133 17.0332C8.8218 17.4154 8.89751 17.7471 8.95519 17.9634C8.9624 17.9021 8.97682 17.8264 8.99124 17.7507C8.99124 17.7507 8.99124 17.7507 8.99124 17.7435C8.99845 17.592 9.01288 17.419 9.03811 17.2315C9.12824 16.5754 9.35537 15.8039 9.89976 15.6128Z" fill="white"/>
<path d="M11.2365 9.89095C12.6605 9.41506 14.3261 9.14467 16.1215 9.14467C17.8665 9.14467 19.4852 9.40064 20.8768 9.85129C20.9057 9.80442 20.9309 9.75756 20.9562 9.71429C21.0896 9.47635 21.2193 9.24922 21.3455 9.01849L22.9354 6.25327L19.9503 7.00677L20.4911 7.29879C20.7831 7.45742 20.9165 7.79271 20.8047 8.07752C20.6786 8.38036 20.3325 8.53538 20.0224 8.41641C19.204 8.08473 18.3279 7.86121 17.4122 7.73502C17.1238 7.69537 16.9075 7.4394 16.9075 7.14016C16.9075 6.77243 17.2067 6.47319 17.5745 6.47319H18.0035L16.0458 4.04688L14.0846 6.47319H14.5136C14.8814 6.47319 15.1806 6.77243 15.1806 7.14016C15.1806 7.4394 14.9643 7.69537 14.6759 7.73502C13.7024 7.86121 12.7543 8.11718 11.8602 8.50654H11.8097C11.4852 8.4092 11.2689 8.18568 11.2401 7.91529C11.222 7.66652 11.3374 7.43218 11.5609 7.32042L12.1378 7.00677L9.15625 6.25327L10.7353 9.01127C10.9012 9.31051 11.0706 9.59532 11.2365 9.89095Z" fill="white"/>
<path d="M22.297 13.9321L22.2645 13.7987L22.3727 13.8781C22.6936 14.1052 22.964 14.1737 23.0793 14.2025C22.9495 13.4382 22.4015 12.7604 21.9148 12.1584C21.7706 11.9781 21.6012 11.6176 21.457 11.3328C20.2384 10.774 18.717 10.3882 17.0586 10.2656C17.2064 10.5576 17.3867 10.8244 17.639 11.0119C17.6426 11.0119 17.6499 11.0191 17.6499 11.0191C17.8049 11.0948 17.9635 11.1525 18.1293 11.1777C18.2195 11.1922 18.324 11.2066 18.443 11.2066C18.4971 11.2066 18.5512 11.2138 18.6088 11.221C18.8576 11.2607 19.0667 11.3941 19.247 11.5887C19.2794 11.6212 19.3227 11.6572 19.3587 11.7005C19.3623 11.7077 19.3768 11.7185 19.384 11.733C20.2096 12.6847 20.5016 14.7902 21.4462 15.4644C21.4642 15.4788 21.4786 15.4932 21.5002 15.5004C21.5147 15.5148 21.5363 15.5184 21.5471 15.5257C21.612 15.5617 21.6733 15.5978 21.7418 15.6158C22.315 15.8177 22.5385 16.6613 22.6179 17.3355C22.6323 17.4833 22.6431 17.6239 22.6503 17.7465C22.6503 17.7537 22.6503 17.7537 22.6503 17.7537C22.6647 17.8294 22.6791 17.9051 22.6864 17.9664C22.7332 17.7789 22.7981 17.5013 22.8486 17.1732C22.9567 16.4558 22.9964 15.5148 22.6215 14.8407C22.4989 14.6243 22.416 14.3395 22.297 13.9321Z" fill="white"/>
<path d="M10.729 18.1434C10.4406 17.4837 10.1161 16.9465 10.008 16.7734C10.008 16.7734 10.0044 16.777 10.0008 16.7843C9.96832 16.8455 9.79527 17.1628 9.65827 17.6279C9.56454 17.9523 9.48522 18.3489 9.48522 18.7815C9.48522 19.0231 9.51046 19.2683 9.56814 19.5242C9.57175 19.5314 9.57175 19.5423 9.57535 19.5495C9.58977 19.6108 9.60059 19.672 9.60059 19.7297C9.60059 19.9929 9.49604 20.1443 9.38428 20.3102C9.25449 20.5048 9.12109 20.6995 9.12109 21.0925C9.12109 21.6549 9.49604 22.0371 9.64746 22.1705C9.72677 21.6477 10.1378 21.5792 10.1378 21.5792C9.73398 22.5418 10.0512 23.335 10.5632 23.9298C10.3288 22.9312 10.6064 22.3003 10.8768 21.691C11.0751 21.2475 11.277 20.7969 11.277 20.1984C11.277 19.9677 11.2446 19.7225 11.1905 19.4774C11.0895 19.0231 10.9165 18.558 10.729 18.1434Z" fill="white"/>
<path d="M16.5144 14.542C16.5144 14.5276 16.5144 14.5132 16.5216 14.5024C16.5433 14.4483 16.6911 14.369 16.9074 14.2752C17.6248 13.9724 19.0164 13.5614 19.3301 13.5326C19.4311 13.529 19.5572 13.5794 19.687 13.6696V13.6659C19.6906 13.6696 19.6978 13.6732 19.7014 13.6768C19.3481 12.8187 18.8975 12.076 18.1548 12.076C17.203 12.076 16.6082 11.1207 16.2548 10.2374H16.2512V10.2338C16.1359 10.2266 16.0205 10.2266 15.9051 10.2266C15.8763 10.2266 15.8475 10.2266 15.8186 10.2302C15.6708 10.2266 15.5266 10.2302 15.3824 10.2374C15.0255 11.1207 14.4342 12.076 13.4788 12.076C12.7361 12.076 12.2855 12.8187 11.9322 13.6768C11.9358 13.6732 11.943 13.6696 11.9466 13.6659V13.6696C12.0764 13.5794 12.2026 13.529 12.3035 13.5326C12.6172 13.5614 14.0088 13.9724 14.7262 14.2752C14.9425 14.369 15.0904 14.4483 15.112 14.5024C15.1156 14.5132 15.1192 14.5276 15.1192 14.5492L15.1228 17.0296C14.9281 16.8349 14.82 16.2689 14.7623 15.8219C14.7551 15.8147 14.7443 15.8111 14.737 15.8038V15.8002C14.7298 15.7966 14.7226 15.793 14.719 15.7894C14.6758 15.7642 14.6325 15.7426 14.5892 15.7245C14.5712 15.7209 14.5568 15.7137 14.5424 15.7101C14.4919 15.6957 14.4414 15.6849 14.3909 15.6813C14.3873 15.6813 14.3873 15.6813 14.3837 15.6813C14.3837 15.6813 14.3837 15.6813 14.3801 15.6813C14.1314 15.6813 13.7853 15.8327 13.2769 15.8219C13.2048 15.8219 13.1291 15.8183 13.0498 15.8075C12.7542 15.7714 12.4621 15.656 12.217 15.4794L11.9466 15.2955C11.9466 15.2955 12.2819 14.8629 13.0318 14.8701C13.1363 14.8737 13.2517 14.8845 13.3743 14.9061C13.5401 14.935 13.6915 14.9602 13.8393 14.9855C14.1818 15.0431 14.4739 15.0972 14.6866 15.2306C14.6902 15.2342 14.6974 15.2342 14.7046 15.2378C14.6505 15.1549 14.5892 15.0792 14.5279 15.0107C14.4991 14.9746 14.4667 14.9422 14.4342 14.9098C14.4126 14.8881 14.3945 14.8629 14.3693 14.8413C13.742 14.25 12.9056 14.1779 12.235 14.25C12.0331 14.2716 11.842 14.3077 11.6834 14.3437C11.3229 15.3424 11.1462 16.2761 10.6271 16.2797H10.6235C10.5874 16.2797 10.5478 16.2797 10.5117 16.2942V16.2978C10.5117 16.2978 10.5189 16.305 10.5225 16.3086L11.4166 17.7579C11.4491 17.83 11.4779 17.9021 11.4996 17.9706C11.5536 18.1977 11.6329 18.3888 11.7231 18.5546C11.7555 18.6195 11.7916 18.6772 11.824 18.7313C11.8601 18.789 11.8961 18.8395 11.9322 18.8863C11.9646 18.9296 11.9971 18.9728 12.0259 19.0089C12.0908 19.0846 12.1449 19.1459 12.1881 19.1928C12.2098 19.2108 12.6352 19.0738 12.8371 18.962C12.8984 18.9296 12.9633 18.8935 13.0318 18.8611C13.1075 18.8178 13.1868 18.7782 13.2697 18.7385C13.5185 18.6267 14.0881 18.4285 14.0917 18.4285C14.1386 18.1617 14.2576 17.6894 14.5892 17.6461C14.6361 17.6425 14.6866 17.6425 14.7407 17.6569C14.9137 17.6966 14.9858 17.8696 15.0183 17.9706C15.0002 17.9526 14.9822 17.949 14.957 17.949C14.957 17.949 14.9534 17.949 14.9498 17.949C14.9029 17.9526 14.8308 17.9634 14.701 17.949C14.6974 17.949 14.6938 17.949 14.6938 17.949C14.6794 17.949 14.6649 17.9454 14.6541 17.9454C14.4126 17.9454 14.4306 18.2266 14.4558 18.4321V18.4357C14.4558 18.4357 14.5964 18.5006 14.7875 18.5871C14.8416 18.6123 14.8993 18.6376 14.9606 18.6664C15.0399 18.7025 15.1192 18.7385 15.2021 18.7746C15.4761 18.8899 15.7429 18.9981 15.8186 19.0125C15.8222 19.0125 15.8258 19.0125 15.8258 19.0125C15.9736 19.0197 17.0336 18.5114 17.1634 18.4501C17.1742 18.4465 17.1778 18.4429 17.1778 18.4429C17.1778 18.4429 17.1778 18.4393 17.1778 18.4357V18.4321C17.203 18.2266 17.221 17.9454 16.9795 17.9454C16.9687 17.9454 16.9543 17.949 16.9398 17.949C16.9362 17.949 16.9362 17.949 16.9326 17.949C16.8966 17.9454 16.7704 17.9345 16.6839 17.949C16.6803 17.949 16.6803 17.949 16.6767 17.949C16.6514 17.949 16.6334 17.9526 16.6154 17.9706C16.6478 17.8696 16.7199 17.6966 16.893 17.6569C16.947 17.6425 16.9975 17.6425 17.0444 17.6461C17.3761 17.6894 17.495 18.1617 17.5419 18.4285C17.5455 18.4285 18.1151 18.6267 18.3639 18.7385C18.4288 18.771 18.4937 18.8034 18.555 18.8358C18.6415 18.8791 18.7244 18.9224 18.7965 18.962C18.9984 19.0738 19.4238 19.2108 19.4455 19.1928C19.4887 19.1459 19.5428 19.0846 19.6077 19.0089C19.6365 18.9728 19.669 18.9296 19.7014 18.8863C19.7375 18.8395 19.7735 18.789 19.8096 18.7313C19.842 18.6772 19.8781 18.6195 19.9105 18.5546C19.9214 18.5366 19.9322 18.515 19.943 18.4933C19.961 18.4573 19.979 18.4176 19.9971 18.3744C20.0151 18.3347 20.0331 18.2915 20.0475 18.2482C20.0656 18.2049 20.08 18.1617 20.0944 18.1148C20.1088 18.0679 20.1233 18.0211 20.1341 17.9706C20.1557 17.9021 20.1845 17.83 20.217 17.7579L21.1435 16.3266C21.1471 16.323 21.1543 16.3158 21.1543 16.3158V16.3122C21.1183 16.2978 21.0786 16.2978 21.0426 16.2978H21.039C20.5198 16.2942 20.3107 15.3424 19.9502 14.3437C19.7916 14.3077 19.6005 14.2716 19.3986 14.25C18.728 14.1779 17.8916 14.25 17.2643 14.8413C17.2391 14.8629 17.221 14.8881 17.1994 14.9098C17.167 14.9422 17.1345 14.9746 17.1057 15.0107C17.0444 15.0792 16.9831 15.1549 16.929 15.2378C16.9362 15.2342 16.9434 15.2342 16.947 15.2306C17.1598 15.0972 17.4518 15.0431 17.7943 14.9855C17.9421 14.9602 18.0935 14.935 18.2594 14.9061C18.3819 14.8845 18.4973 14.8737 18.6018 14.8701C19.3517 14.8629 19.687 15.2955 19.687 15.2955L19.4166 15.4794C19.1715 15.656 18.8795 15.7714 18.5838 15.8075C18.5045 15.8183 18.4288 15.8219 18.3567 15.8219H18.3062C17.8231 15.8219 17.495 15.6813 17.2535 15.6813C17.2499 15.6813 17.2499 15.6813 17.2499 15.6813C17.2463 15.6813 17.2463 15.6813 17.2427 15.6813C17.1922 15.6849 17.1417 15.6957 17.0913 15.7101C17.0768 15.7137 17.0624 15.7209 17.0444 15.7245C17.0011 15.7426 16.9579 15.7642 16.9146 15.7894C16.911 15.793 16.9038 15.7966 16.8966 15.8002V15.8038C16.8894 15.8111 16.8785 15.8147 16.8713 15.8219C16.8137 16.2689 16.7055 16.8349 16.5108 17.0296L16.5144 14.5492V14.542Z" fill="white"/>
</svg>
