<svg width="33" height="32" viewBox="0 0 33 32" fill="none" xmlns="http://www.w3.org/2000/svg">
<g clip-path="url(#clip0_14237_163619)">
<path d="M16.4569 31.9138C25.2697 31.9138 32.4138 24.7697 32.4138 15.9569C32.4138 7.14412 25.2697 0 16.4569 0C7.64412 0 0.5 7.14412 0.5 15.9569C0.5 24.7697 7.64412 31.9138 16.4569 31.9138Z" fill="#01052D"/>
<path d="M11.6468 9.47019C13.2206 8.96362 14.8654 8.71233 16.5187 8.72592C18.1273 8.71809 19.7272 8.96069 21.2612 9.44503L21.3402 9.30838C21.4734 9.07109 21.6026 8.84457 21.7286 8.61446L23.3142 5.85671L20.3371 6.60817L20.8765 6.89941C21.0142 6.96854 21.1221 7.08559 21.1797 7.22859C21.2373 7.37159 21.2407 7.5307 21.1893 7.67603C21.1285 7.82263 21.0132 7.93984 20.8675 8.00291C20.7219 8.066 20.5575 8.06996 20.409 8.01401C19.5728 7.68056 18.6984 7.4523 17.8059 7.33446C17.6646 7.31281 17.5359 7.24087 17.4434 7.13187C17.3509 7.02286 17.3009 6.88414 17.3025 6.74119C17.3025 6.56478 17.3726 6.3956 17.4973 6.27086C17.6221 6.14612 17.7913 6.07603 17.9677 6.07603H18.3956L16.4432 3.65625L14.4872 6.07603H14.9151C15.0031 6.07316 15.0907 6.08777 15.173 6.119C15.2552 6.15025 15.3305 6.19751 15.3944 6.25804C15.4582 6.31857 15.5095 6.39117 15.5451 6.47163C15.5807 6.5521 15.6 6.63884 15.6019 6.72682C15.6035 6.86976 15.5535 7.00848 15.461 7.11749C15.3685 7.22649 15.2398 7.29843 15.0985 7.32008C14.1309 7.44312 13.1855 7.70215 12.2904 8.08952H12.24C12.0966 8.06068 11.9654 7.9888 11.8639 7.88343C11.7624 7.77808 11.6954 7.64426 11.672 7.49984C11.6598 7.3803 11.6838 7.25984 11.7409 7.15408C11.7979 7.04831 11.8854 6.9621 11.992 6.9066L12.5672 6.59379L9.59375 5.84233L11.1686 8.59289C11.3268 8.8913 11.4958 9.17536 11.6468 9.47019Z" fill="white"/>
<path d="M17.6908 20.9391C17.4972 20.818 17.2817 20.7364 17.0565 20.6988C16.8313 20.6611 16.6009 20.6683 16.3785 20.7198C16.1557 20.6657 15.9242 20.6573 15.6981 20.695C15.4719 20.7327 15.2557 20.8157 15.0625 20.9391C15.4969 21.0869 15.9492 21.175 16.4072 21.2016C16.8456 21.1773 17.2781 21.0887 17.6908 20.9391Z" fill="white"/>
<path d="M18.8075 23.6825C18.9951 23.4315 19.1275 23.1435 19.1958 22.8377C19.2397 22.4495 19.1414 22.0584 18.919 21.7374C18.7809 21.5271 18.5756 21.3698 18.3365 21.2915C18.2139 21.2483 18.0938 21.1978 17.977 21.1406C17.7669 21.3424 17.5189 21.5005 17.2474 21.6061C16.9759 21.7116 16.6862 21.7623 16.3949 21.7553C15.7908 21.7515 15.2047 21.5494 14.7266 21.1801C14.6403 21.2161 14.5505 21.2485 14.457 21.2807C14.3122 21.3326 14.1807 21.4162 14.0722 21.5252C13.911 21.7064 13.7881 21.9182 13.7108 22.148C13.6336 22.378 13.6036 22.6209 13.6228 22.8628C13.6912 23.1687 13.8235 23.4567 14.0111 23.7077C14.1894 23.9423 14.3105 24.2153 14.3648 24.505C14.4191 24.7944 14.4051 25.0928 14.3239 25.3761C14.2854 25.4856 14.2348 25.5905 14.1729 25.6888C14.3467 25.9288 14.5483 26.1472 14.7734 26.3396C15.1827 26.7325 15.7067 26.9844 16.2691 27.0588C16.2183 27.0039 16.1857 26.9347 16.1761 26.8605C16.1664 26.7865 16.1801 26.7111 16.2152 26.6452C16.2538 26.5825 16.2996 26.5247 16.3518 26.4726C16.5532 26.2282 16.8911 25.8363 16.7725 25.4696L16.7329 25.3366L16.8516 25.412C16.8516 25.412 17.1823 25.6566 16.7869 26.5193C16.7344 26.6147 16.703 26.7203 16.695 26.8289C16.6869 26.9374 16.7023 27.0465 16.7401 27.1485C16.8275 27.3332 16.9798 27.4791 17.168 27.5585C17.1967 27.3139 17.3621 26.4798 18.0201 26.4798C18.3573 26.4429 18.67 26.286 18.901 26.0377C18.6455 25.7021 18.4994 25.2963 18.4827 24.8749C18.4659 24.4535 18.5794 24.0372 18.8075 23.6825Z" fill="white"/>
<path d="M18.6537 18.7623L18.118 18.2805C18.118 18.3848 18.0173 18.5142 17.7872 18.64L17.7189 18.6796C17.3478 18.8725 16.9523 19.014 16.5431 19.1003C16.4394 19.1145 16.3341 19.1145 16.2303 19.1003H16.1548C15.767 19.0164 15.3921 18.881 15.0402 18.6976C14.7022 18.5178 14.6267 18.338 14.6267 18.2266C14.5225 18.3236 14.4002 18.4495 14.2672 18.5861C13.9076 18.9457 13.451 19.3879 13.0303 19.7475C12.207 20.4666 11.7503 22.8469 12.0487 23.9829C12.1695 24.3812 12.3743 24.7492 12.6492 25.0615C12.9261 25.4212 13.167 25.7447 13.0447 26.1402C13.0201 26.1979 13.0096 26.2605 13.014 26.323C13.0183 26.3856 13.0375 26.4462 13.0699 26.4999C13.2663 26.7405 13.5462 26.8984 13.8537 26.942C13.6487 26.7802 13.2533 26.2696 13.6955 25.2809C13.8429 24.8423 13.6955 24.5869 13.4043 24.1269C13.1572 23.7919 12.9877 23.4062 12.9081 22.9977C12.7247 21.779 13.8034 20.855 13.8393 20.8296C13.8753 20.8045 13.9687 20.6643 14.073 20.6499C14.4326 20.6032 15.0402 20.0135 15.5687 20.2077C15.8206 20.3044 16.0866 20.359 16.3562 20.3695C16.374 20.3721 16.3922 20.3721 16.4101 20.3695C16.4448 20.3727 16.4797 20.3727 16.5144 20.3695C16.7478 20.3551 16.9773 20.3029 17.1939 20.2149C17.7117 20.0207 18.402 20.6319 18.7759 20.6787C18.816 20.6842 18.8541 20.6991 18.8873 20.7223C18.9204 20.7454 18.9475 20.776 18.9665 20.8117L19.0025 20.8512C19.2002 21.0274 20.0631 21.8761 19.9085 22.9474C19.8289 23.356 19.6594 23.7416 19.4123 24.0764C19.2983 24.2515 19.2239 24.4494 19.1941 24.6561C19.1642 24.8629 19.1798 25.0736 19.2398 25.2737C19.2655 25.3553 19.2871 25.438 19.3045 25.5218C19.3045 25.5218 19.3045 25.5218 19.3045 25.5434C19.3771 25.7682 19.3864 26.0086 19.3312 26.2382C19.276 26.4679 19.1585 26.6777 18.9917 26.845L18.927 26.9096C19.2236 26.8627 19.4925 26.7079 19.682 26.4747C19.7158 26.4217 19.7361 26.361 19.7411 26.2985C19.7462 26.2357 19.7357 26.1728 19.7108 26.115C19.5849 25.7269 19.8258 25.3961 20.1027 25.0364C20.3798 24.7249 20.5859 24.3569 20.7067 23.9577C21.0016 22.8215 20.5449 20.445 19.7252 19.7223C19.3836 19.449 18.9989 19.0823 18.6537 18.7623Z" fill="white"/>
<path d="M22.5665 19.2879C22.5679 19.2272 22.5765 19.1669 22.5916 19.1081C22.5916 19.1081 22.5916 19.1081 22.5916 19.0829C22.6396 18.8679 22.6673 18.6488 22.6743 18.4285C22.6835 18.0331 22.6361 17.6385 22.5341 17.2564C22.4468 16.9378 22.3263 16.6293 22.1746 16.3359C21.8885 16.7971 21.635 17.2776 21.4159 17.7741C21.2277 18.192 21.0831 18.6282 20.9844 19.0757C20.9297 19.3044 20.8996 19.5382 20.8945 19.7732C20.9141 20.2931 21.0505 20.8019 21.2936 21.2618C21.6709 21.9417 21.7823 22.7373 21.6065 23.4947C21.902 23.1903 22.1002 22.8046 22.1758 22.3872C22.2515 21.9695 22.2008 21.5389 22.0308 21.1504C22.1642 21.1842 22.2833 21.2597 22.3712 21.3657C22.4591 21.4716 22.511 21.6025 22.5197 21.7399C22.6777 21.6067 22.8059 21.4419 22.8963 21.2561C22.9866 21.0704 23.0371 20.8678 23.0446 20.6613C23.0558 20.3753 22.9669 20.0942 22.793 19.8667C22.6542 19.705 22.5742 19.5009 22.5665 19.2879Z" fill="white"/>
<path d="M10.471 15.1771C10.5378 15.1548 10.6027 15.1272 10.6651 15.0945C10.6791 15.0834 10.6949 15.0748 10.7119 15.0693C10.7326 15.0599 10.7519 15.0478 10.7694 15.0333C11.7006 14.361 11.848 11.9412 12.808 11.3263C13.1855 11.0511 13.6129 10.852 14.0665 10.7403C14.2958 10.6726 14.5094 10.5598 14.6946 10.4085C14.8798 10.2573 15.033 10.0706 15.1451 9.85938C13.6785 9.97385 12.2423 10.3387 10.8988 10.938C10.7874 11.107 10.5393 11.4738 10.3991 11.6571C9.94963 12.2648 9.43547 12.9479 9.32042 13.7461C9.51711 13.6866 9.69779 13.5833 9.84896 13.4441L9.96042 13.365L9.92445 13.498C9.84642 13.8099 9.73804 14.1134 9.60085 14.4041C9.30159 15.0929 9.21519 15.8555 9.35277 16.5938C9.39433 16.9065 9.45556 17.2164 9.53615 17.5214C9.53615 17.4603 9.55771 17.3848 9.57209 17.3093C9.57209 17.1583 9.59366 16.9857 9.61883 16.7987C9.70153 16.1371 9.92804 15.3677 10.471 15.1771Z" fill="white"/>
<path d="M22.8341 13.4991L22.7908 13.3661L22.8987 13.4452C23.1146 13.5996 23.3589 13.7096 23.6179 13.7688C23.4884 13.0066 22.9419 12.3306 22.4565 11.7302C22.2822 11.4685 22.1294 11.1931 21.9998 10.9068C20.612 10.2934 19.1273 9.9283 17.6133 9.82812C17.7459 10.1178 17.9441 10.3726 18.1922 10.5724C18.3426 10.6491 18.5039 10.7025 18.6704 10.7306C18.7737 10.7486 18.8783 10.7583 18.9832 10.7594C19.0383 10.756 19.0935 10.756 19.1486 10.7594C19.3955 10.8032 19.62 10.93 19.785 11.1189C19.8173 11.1513 19.8605 11.1872 19.8964 11.2304C19.9054 11.2407 19.9138 11.2515 19.9216 11.2627C20.745 12.2119 21.0362 14.3117 21.9782 14.9841C21.9937 14.9993 22.012 15.0115 22.0322 15.02C22.0393 15.049 22.0528 15.076 22.0717 15.0991C22.1323 15.1371 22.1976 15.1673 22.266 15.189C22.8376 15.3904 23.0606 16.2317 23.1395 16.9041C23.1395 17.0515 23.1647 17.1917 23.1719 17.314C23.1719 17.3895 23.2006 17.465 23.2079 17.5261C23.2546 17.3391 23.3193 17.0623 23.3697 16.7351C23.4776 16.016 23.5171 15.0812 23.1433 14.4088C23.008 14.1175 22.9043 13.8125 22.8341 13.4991Z" fill="white"/>
<path d="M11.2858 17.71C11.078 17.2385 10.8377 16.782 10.5667 16.3438C10.4182 16.6111 10.2977 16.893 10.2072 17.1851C10.0961 17.5587 10.038 17.946 10.0346 18.3357C10.0344 18.5849 10.0622 18.8333 10.1173 19.0763C10.1173 19.0763 10.1173 19.0943 10.1173 19.1015C10.1324 19.1603 10.1409 19.2206 10.1424 19.2813C10.1376 19.493 10.0616 19.6969 9.9267 19.8602C9.75217 20.0823 9.6595 20.3579 9.66424 20.6404C9.67167 20.8469 9.72223 21.0495 9.81264 21.2352C9.90305 21.421 10.0313 21.5858 10.1892 21.719C10.1979 21.5816 10.2499 21.4505 10.3377 21.3447C10.4256 21.2388 10.5448 21.1633 10.6782 21.1295C10.508 21.518 10.4575 21.9486 10.5331 22.3662C10.6086 22.7837 10.8068 23.1691 11.1024 23.4736C10.9266 22.7164 11.0381 21.9207 11.4152 21.2408C11.6648 20.791 11.811 20.291 11.8431 19.7775C11.8402 19.5354 11.8113 19.2943 11.7568 19.0584C11.6461 18.5941 11.4883 18.1423 11.2858 17.71Z" fill="white"/>
<path d="M17.0628 14.1049C17.0591 14.092 17.0591 14.0783 17.0628 14.0654C17.0844 14.0114 17.2318 13.9323 17.4475 13.8388C18.23 13.5226 19.0384 13.2748 19.8637 13.0982C19.9948 13.1055 20.1203 13.1533 20.2232 13.2348C19.8637 12.3791 19.4214 11.6384 18.6808 11.6384C17.7315 11.6384 17.1383 10.6856 16.7859 9.80469C16.6709 9.80469 16.5558 9.80469 16.4264 9.80469H16.3401C16.1927 9.80469 16.0488 9.80469 15.905 9.80469C15.5455 10.6856 14.9594 11.6384 14.0066 11.6384C13.2659 11.6384 12.8165 12.3791 12.4641 13.2348C12.567 13.1533 12.6926 13.1055 12.8237 13.0982C13.649 13.2748 14.4574 13.5226 15.2399 13.8388C15.4556 13.9323 15.5994 14.0114 15.6246 14.0654C15.6272 14.0808 15.6272 14.0966 15.6246 14.1121V16.5858C15.4304 16.3917 15.3226 15.8271 15.265 15.3813L15.2399 15.3633L15.1104 15.2986H15.0637C15.0145 15.2838 14.9639 15.2742 14.9127 15.2698C14.5491 15.3388 14.1817 15.3856 13.8124 15.4101C13.737 15.4152 13.6613 15.4152 13.5859 15.4101C13.286 15.3726 13.0003 15.26 12.7554 15.0829L12.4857 14.8995C12.6234 14.754 12.7914 14.6407 12.9778 14.5673C13.1642 14.494 13.3644 14.4626 13.5644 14.4753C13.6849 14.4784 13.8051 14.4904 13.9239 14.5112L14.3877 14.5903C14.6821 14.6186 14.9687 14.7015 15.2327 14.8348C15.1798 14.7549 15.1208 14.6792 15.0565 14.6083C15.0272 14.573 14.996 14.5394 14.963 14.5076C14.9414 14.486 14.9234 14.4609 14.8983 14.4393C14.6078 14.192 14.2668 14.0111 13.8992 13.9093C13.5315 13.8075 13.1461 13.7871 12.7697 13.8496C12.5847 13.8702 12.4011 13.9014 12.2196 13.9431C11.8601 14.9391 11.6839 15.8703 11.1661 15.8739C11.1293 15.8669 11.0915 15.8669 11.0547 15.8739L11.9464 17.3121C11.978 17.3812 12.0056 17.452 12.0291 17.5242C12.0771 17.7274 12.1521 17.9233 12.252 18.1067C12.2844 18.1714 12.3203 18.229 12.3527 18.2829C12.385 18.3368 12.4246 18.3907 12.4605 18.4375L12.554 18.5597L12.7158 18.7431C12.9414 18.6975 13.1593 18.62 13.363 18.513L13.5571 18.4123C13.6327 18.3692 13.7118 18.3296 13.7945 18.2901C14.0426 18.1786 14.6106 17.9809 14.6142 17.9809C14.661 17.7148 14.7796 17.2618 15.1104 17.2006C15.1604 17.192 15.2115 17.192 15.2614 17.2006C15.3306 17.2245 15.3925 17.2658 15.441 17.3206C15.4895 17.3754 15.5231 17.4419 15.5383 17.5134C15.5303 17.5055 15.5207 17.4995 15.5101 17.4958C15.4996 17.492 15.4883 17.4907 15.4771 17.4919C15.3947 17.5014 15.3115 17.5014 15.2291 17.4919H15.1823C14.9414 17.4919 14.9594 17.7723 14.9846 17.9773L15.3154 18.1283L15.488 18.2074L15.7288 18.3153C15.9293 18.4056 16.1345 18.4848 16.3437 18.5526C16.8013 18.3981 17.2471 18.2106 17.6776 17.9917C17.7028 17.7867 17.7208 17.5063 17.4799 17.5063H17.4331C17.3507 17.497 17.2675 17.497 17.185 17.5063C17.1739 17.5051 17.1626 17.5064 17.152 17.5101C17.1415 17.5139 17.1318 17.5199 17.1239 17.5278C17.1392 17.4562 17.1727 17.3898 17.2212 17.335C17.2697 17.2802 17.3316 17.2388 17.4008 17.215C17.4507 17.2064 17.5018 17.2064 17.5518 17.215C17.8826 17.2582 18.0012 17.7292 18.048 17.9953C18.048 17.9953 18.6196 18.193 18.8677 18.3045L19.0583 18.4015L19.2992 18.5274C19.5029 18.6344 19.7208 18.7119 19.9464 18.7575L20.1082 18.5741L20.2017 18.4519C20.2376 18.4051 20.2736 18.3548 20.3095 18.2973C20.3455 18.2397 20.3778 18.1858 20.4102 18.1211L20.4426 18.06C20.4617 18.024 20.4797 17.9845 20.4965 17.9413C20.5154 17.9003 20.5322 17.8583 20.5468 17.8155C20.5648 17.7723 20.5792 17.7292 20.5936 17.6824C20.608 17.6357 20.6223 17.589 20.6331 17.5386C20.6566 17.4664 20.6842 17.3955 20.7158 17.3265L21.6399 15.8883C21.6031 15.8813 21.5653 15.8813 21.5283 15.8883C21.0106 15.8883 20.8093 14.9355 20.4497 13.9395C20.2683 13.8978 20.0847 13.8666 19.8996 13.846C19.5233 13.7835 19.1379 13.8039 18.7702 13.9057C18.4026 14.0076 18.0616 14.1884 17.7711 14.4357C17.7459 14.4573 17.728 14.4824 17.7064 14.504C17.6734 14.5358 17.6422 14.5694 17.6129 14.6047C17.5485 14.6756 17.4896 14.7513 17.4367 14.8312H17.4547C17.7187 14.6979 18.0052 14.615 18.2996 14.5867L18.7634 14.5076C18.8823 14.4868 19.0024 14.4748 19.123 14.4717C19.3229 14.459 19.5232 14.4904 19.7095 14.5637C19.896 14.6371 20.064 14.7505 20.2017 14.8959L19.932 15.0793C19.687 15.2564 19.4014 15.369 19.1014 15.4065C19.026 15.4116 18.9503 15.4116 18.8749 15.4065H18.8354C18.3536 15.4065 18.0264 15.2663 17.7855 15.2663C17.7343 15.2706 17.6837 15.2802 17.6345 15.295H17.5877L17.4583 15.3597L17.4331 15.3777C17.3756 15.8236 17.2677 16.3881 17.0736 16.5822V14.1013L17.0628 14.1049Z" fill="white"/>
</g>
<defs>
<clipPath id="clip0_14237_163619">
<rect width="32" height="32" fill="white" transform="translate(0.5)"/>
</clipPath>
</defs>
</svg>
